<mxfile host="app.diagrams.net" modified="2022-11-08T02:24:47.464Z" agent="5.0 (Windows NT 10.0; Win64; x64) AppleWebKit/537.36 (KHTML, like Gecko) Chrome/86.0.4240.198 Safari/537.36" etag="H9uAxMwKcEcBVOW64CL_" version="20.5.3" type="github" pages="3">
  <diagram name="1.播放源方式配置及查询" id="13e1069c-82ec-6db2-03f1-153e76fe0fe0">
    <mxGraphModel dx="1422" dy="771" grid="1" gridSize="10" guides="1" tooltips="1" connect="1" arrows="1" fold="1" page="1" pageScale="1" pageWidth="1100" pageHeight="850" background="none" math="0" shadow="0">
      <root>
        <mxCell id="0" />
        <mxCell id="1" parent="0" />
        <mxCell id="s7z5t_BVj63bK32V62Rd-1" value="vod-portal-front" style="shape=umlLifeline;perimeter=lifelinePerimeter;whiteSpace=wrap;html=1;container=1;collapsible=0;recursiveResize=0;outlineConnect=0;" parent="1" vertex="1">
          <mxGeometry x="84" y="80" width="120" height="620" as="geometry" />
        </mxCell>
        <mxCell id="s7z5t_BVj63bK32V62Rd-2" value="vod-portal" style="shape=umlLifeline;perimeter=lifelinePerimeter;whiteSpace=wrap;html=1;container=1;collapsible=0;recursiveResize=0;outlineConnect=0;" parent="1" vertex="1">
          <mxGeometry x="404" y="80" width="120" height="610" as="geometry" />
        </mxCell>
        <mxCell id="s7z5t_BVj63bK32V62Rd-11" value="" style="html=1;points=[];perimeter=orthogonalPerimeter;" parent="s7z5t_BVj63bK32V62Rd-2" vertex="1">
          <mxGeometry x="55" y="176" width="10" height="190" as="geometry" />
        </mxCell>
        <mxCell id="s7z5t_BVj63bK32V62Rd-3" value="live-portal" style="shape=umlLifeline;perimeter=lifelinePerimeter;whiteSpace=wrap;html=1;container=1;collapsible=0;recursiveResize=0;outlineConnect=0;" parent="1" vertex="1">
          <mxGeometry x="764" y="80" width="120" height="610" as="geometry" />
        </mxCell>
        <mxCell id="s7z5t_BVj63bK32V62Rd-14" value="" style="html=1;points=[];perimeter=orthogonalPerimeter;" parent="s7z5t_BVj63bK32V62Rd-3" vertex="1">
          <mxGeometry x="55" y="216" width="10" height="80" as="geometry" />
        </mxCell>
        <mxCell id="s7z5t_BVj63bK32V62Rd-17" value="" style="html=1;points=[];perimeter=orthogonalPerimeter;" parent="s7z5t_BVj63bK32V62Rd-3" vertex="1">
          <mxGeometry x="55" y="110" width="10" height="40" as="geometry" />
        </mxCell>
        <mxCell id="s7z5t_BVj63bK32V62Rd-18" value="1.AM配置vno是否支持live-epg播放源方式" style="edgeStyle=orthogonalEdgeStyle;html=1;align=left;spacingLeft=2;endArrow=block;rounded=0;entryX=1;entryY=0;" parent="s7z5t_BVj63bK32V62Rd-3" target="s7z5t_BVj63bK32V62Rd-17" edge="1">
          <mxGeometry relative="1" as="geometry">
            <mxPoint x="60" y="90" as="sourcePoint" />
            <Array as="points">
              <mxPoint x="90" y="90" />
            </Array>
          </mxGeometry>
        </mxCell>
        <mxCell id="s7z5t_BVj63bK32V62Rd-12" value="2.查询vno支持的播放源方式" style="html=1;verticalAlign=bottom;endArrow=block;entryX=0;entryY=0;rounded=0;" parent="1" target="s7z5t_BVj63bK32V62Rd-11" edge="1">
          <mxGeometry relative="1" as="geometry">
            <mxPoint x="143.5" y="256.00000000000034" as="sourcePoint" />
          </mxGeometry>
        </mxCell>
        <mxCell id="s7z5t_BVj63bK32V62Rd-13" value="5.返回vno支持的播放源方式列表" style="html=1;verticalAlign=bottom;endArrow=open;dashed=1;endSize=8;exitX=0;exitY=0.95;rounded=0;" parent="1" source="s7z5t_BVj63bK32V62Rd-11" edge="1">
          <mxGeometry relative="1" as="geometry">
            <mxPoint x="143.5" y="436.4999999999998" as="targetPoint" />
          </mxGeometry>
        </mxCell>
        <mxCell id="s7z5t_BVj63bK32V62Rd-15" value="3.查询vno是否支持live-epg播放源方式" style="html=1;verticalAlign=bottom;endArrow=block;entryX=0;entryY=0;rounded=0;" parent="1" target="s7z5t_BVj63bK32V62Rd-14" edge="1">
          <mxGeometry relative="1" as="geometry">
            <mxPoint x="463.5" y="296.0000000000001" as="sourcePoint" />
          </mxGeometry>
        </mxCell>
        <mxCell id="s7z5t_BVj63bK32V62Rd-16" value="4.返回vno是否支持live-epg播放源方式" style="html=1;verticalAlign=bottom;endArrow=open;dashed=1;endSize=8;exitX=0;exitY=0.95;rounded=0;" parent="1" source="s7z5t_BVj63bK32V62Rd-14" edge="1">
          <mxGeometry relative="1" as="geometry">
            <mxPoint x="463.5" y="372" as="targetPoint" />
          </mxGeometry>
        </mxCell>
      </root>
    </mxGraphModel>
  </diagram>
  <diagram id="DTfQQ6EoVzV9WtROhO3i" name="2.单个影片录入epg片源">
    <mxGraphModel dx="1422" dy="771" grid="1" gridSize="10" guides="1" tooltips="1" connect="1" arrows="1" fold="1" page="1" pageScale="1" pageWidth="1827" pageHeight="1569" math="0" shadow="0">
      <root>
        <mxCell id="0" />
        <mxCell id="1" parent="0" />
        <mxCell id="XYJXyiHoGVRGUh7J4csI-1" value="vod-portal-front" style="shape=umlLifeline;perimeter=lifelinePerimeter;whiteSpace=wrap;html=1;container=1;collapsible=0;recursiveResize=0;outlineConnect=0;" parent="1" vertex="1">
          <mxGeometry x="84" y="80" width="120" height="920" as="geometry" />
        </mxCell>
        <mxCell id="XYJXyiHoGVRGUh7J4csI-6" value="" style="html=1;points=[];perimeter=orthogonalPerimeter;" parent="XYJXyiHoGVRGUh7J4csI-1" vertex="1">
          <mxGeometry x="56" y="220" width="10" height="40" as="geometry" />
        </mxCell>
        <mxCell id="XYJXyiHoGVRGUh7J4csI-7" value="1.VNO录入元数据信息（pp&amp;amp;tmdb&amp;amp;web）&lt;br&gt;2.VNO在填写播放源时选择&lt;span style=&quot;color: rgb(34, 34, 34); font-family: Consolas, &amp;quot;Lucida Console&amp;quot;, &amp;quot;Courier New&amp;quot;, monospace; font-size: 12px;&quot;&gt;Live EPG Program方式&lt;br&gt;&lt;/span&gt;" style="edgeStyle=orthogonalEdgeStyle;html=1;align=left;spacingLeft=2;endArrow=block;rounded=0;entryX=1;entryY=0;" parent="XYJXyiHoGVRGUh7J4csI-1" target="XYJXyiHoGVRGUh7J4csI-6" edge="1">
          <mxGeometry relative="1" as="geometry">
            <mxPoint x="61" y="180" as="sourcePoint" />
            <Array as="points">
              <mxPoint x="91" y="180" />
            </Array>
          </mxGeometry>
        </mxCell>
        <mxCell id="U7cklLRFnM9qiptKr7Qg-15" value="" style="html=1;points=[];perimeter=orthogonalPerimeter;" parent="XYJXyiHoGVRGUh7J4csI-1" vertex="1">
          <mxGeometry x="54" y="720" width="10" height="40" as="geometry" />
        </mxCell>
        <mxCell id="U7cklLRFnM9qiptKr7Qg-16" value="11. 选择一个epg program&lt;br&gt;12. 点击save，进入元数据导入流程" style="edgeStyle=orthogonalEdgeStyle;html=1;align=left;spacingLeft=2;endArrow=block;rounded=0;entryX=1;entryY=0;" parent="XYJXyiHoGVRGUh7J4csI-1" target="U7cklLRFnM9qiptKr7Qg-15" edge="1">
          <mxGeometry relative="1" as="geometry">
            <mxPoint x="59" y="686" as="sourcePoint" />
            <Array as="points">
              <mxPoint x="89" y="686" />
            </Array>
          </mxGeometry>
        </mxCell>
        <mxCell id="XYJXyiHoGVRGUh7J4csI-2" value="vod-portal" style="shape=umlLifeline;perimeter=lifelinePerimeter;whiteSpace=wrap;html=1;container=1;collapsible=0;recursiveResize=0;outlineConnect=0;" parent="1" vertex="1">
          <mxGeometry x="404" y="80" width="120" height="920" as="geometry" />
        </mxCell>
        <mxCell id="XYJXyiHoGVRGUh7J4csI-14" value="" style="html=1;points=[];perimeter=orthogonalPerimeter;" parent="XYJXyiHoGVRGUh7J4csI-2" vertex="1">
          <mxGeometry x="55" y="296" width="10" height="133" as="geometry" />
        </mxCell>
        <mxCell id="U7cklLRFnM9qiptKr7Qg-7" value="" style="html=1;points=[];perimeter=orthogonalPerimeter;" parent="XYJXyiHoGVRGUh7J4csI-2" vertex="1">
          <mxGeometry x="55" y="491" width="10" height="140" as="geometry" />
        </mxCell>
        <mxCell id="XYJXyiHoGVRGUh7J4csI-4" value="live-portal" style="shape=umlLifeline;perimeter=lifelinePerimeter;whiteSpace=wrap;html=1;container=1;collapsible=0;recursiveResize=0;outlineConnect=0;" parent="1" vertex="1">
          <mxGeometry x="764" y="80" width="120" height="930" as="geometry" />
        </mxCell>
        <mxCell id="U7cklLRFnM9qiptKr7Qg-1" value="" style="html=1;points=[];perimeter=orthogonalPerimeter;" parent="XYJXyiHoGVRGUh7J4csI-4" vertex="1">
          <mxGeometry x="55" y="323" width="10" height="80" as="geometry" />
        </mxCell>
        <mxCell id="U7cklLRFnM9qiptKr7Qg-10" value="" style="html=1;points=[];perimeter=orthogonalPerimeter;" parent="XYJXyiHoGVRGUh7J4csI-4" vertex="1">
          <mxGeometry x="55" y="511" width="10" height="80" as="geometry" />
        </mxCell>
        <mxCell id="XYJXyiHoGVRGUh7J4csI-12" value="前置条件" style="shape=umlFrame;whiteSpace=wrap;html=1;" parent="1" vertex="1">
          <mxGeometry x="80" y="140" width="850" height="80" as="geometry" />
        </mxCell>
        <mxCell id="XYJXyiHoGVRGUh7J4csI-13" value="1.VNO支持live-epg播放源方式" style="text;strokeColor=none;fillColor=none;align=left;verticalAlign=middle;spacingLeft=4;spacingRight=4;overflow=hidden;points=[[0,0.5],[1,0.5]];portConstraint=eastwest;rotatable=0;" parent="1" vertex="1">
          <mxGeometry x="150" y="165" width="690" height="30" as="geometry" />
        </mxCell>
        <mxCell id="XYJXyiHoGVRGUh7J4csI-15" value="3.输入epgName查询epg列表信息" style="html=1;verticalAlign=bottom;endArrow=block;entryX=0;entryY=0;rounded=0;" parent="1" target="XYJXyiHoGVRGUh7J4csI-14" edge="1">
          <mxGeometry relative="1" as="geometry">
            <mxPoint x="143.5" y="376" as="sourcePoint" />
          </mxGeometry>
        </mxCell>
        <mxCell id="XYJXyiHoGVRGUh7J4csI-16" value="6.返回支持回放的epg列表信息" style="html=1;verticalAlign=bottom;endArrow=open;dashed=1;endSize=8;exitX=0;exitY=0.95;rounded=0;" parent="1" source="XYJXyiHoGVRGUh7J4csI-14" edge="1">
          <mxGeometry relative="1" as="geometry">
            <mxPoint x="143.5" y="502.3499999999999" as="targetPoint" />
          </mxGeometry>
        </mxCell>
        <mxCell id="U7cklLRFnM9qiptKr7Qg-2" value="4. 根据epgName查询epg列表信息" style="html=1;verticalAlign=bottom;endArrow=block;entryX=0;entryY=0;rounded=0;" parent="1" target="U7cklLRFnM9qiptKr7Qg-1" edge="1">
          <mxGeometry relative="1" as="geometry">
            <mxPoint x="463.5" y="403" as="sourcePoint" />
          </mxGeometry>
        </mxCell>
        <mxCell id="U7cklLRFnM9qiptKr7Qg-3" value="5.返回支持回放的epg列表信息" style="html=1;verticalAlign=bottom;endArrow=open;dashed=1;endSize=8;exitX=0;exitY=0.95;rounded=0;" parent="1" source="U7cklLRFnM9qiptKr7Qg-1" edge="1">
          <mxGeometry relative="1" as="geometry">
            <mxPoint x="463.5" y="479" as="targetPoint" />
          </mxGeometry>
        </mxCell>
        <mxCell id="U7cklLRFnM9qiptKr7Qg-9" value="10.返回epg program列表信息" style="html=1;verticalAlign=bottom;endArrow=open;dashed=1;endSize=8;exitX=0;exitY=0.95;rounded=0;" parent="1" source="U7cklLRFnM9qiptKr7Qg-7" edge="1">
          <mxGeometry relative="1" as="geometry">
            <mxPoint x="143.5" y="704" as="targetPoint" />
          </mxGeometry>
        </mxCell>
        <mxCell id="U7cklLRFnM9qiptKr7Qg-8" value="7. 根据epgId查询epg program列表信息&lt;br&gt;（可支持title，descript筛选）" style="html=1;verticalAlign=bottom;endArrow=block;entryX=0;entryY=0;rounded=0;" parent="1" target="U7cklLRFnM9qiptKr7Qg-7" edge="1">
          <mxGeometry relative="1" as="geometry">
            <mxPoint x="143.5" y="571" as="sourcePoint" />
          </mxGeometry>
        </mxCell>
        <mxCell id="U7cklLRFnM9qiptKr7Qg-11" value="8.查询epg program列表信息" style="html=1;verticalAlign=bottom;endArrow=block;entryX=0;entryY=0;rounded=0;" parent="1" target="U7cklLRFnM9qiptKr7Qg-10" edge="1">
          <mxGeometry relative="1" as="geometry">
            <mxPoint x="463.5" y="591" as="sourcePoint" />
          </mxGeometry>
        </mxCell>
        <mxCell id="U7cklLRFnM9qiptKr7Qg-12" value="9.返回epg program列表信息" style="html=1;verticalAlign=bottom;endArrow=open;dashed=1;endSize=8;exitX=0;exitY=0.95;rounded=0;" parent="1" source="U7cklLRFnM9qiptKr7Qg-10" edge="1">
          <mxGeometry relative="1" as="geometry">
            <mxPoint x="463.5" y="667" as="targetPoint" />
          </mxGeometry>
        </mxCell>
      </root>
    </mxGraphModel>
  </diagram>
  <diagram id="xVHUPxIUnQpF4uWxXA1a" name="3.通过EPG-LIVE批量添加影片">
    <mxGraphModel dx="1422" dy="771" grid="1" gridSize="10" guides="1" tooltips="1" connect="1" arrows="1" fold="1" page="1" pageScale="1" pageWidth="1827" pageHeight="1569" math="0" shadow="0">
      <root>
        <mxCell id="0" />
        <mxCell id="1" parent="0" />
        <mxCell id="pqXez1qAbr24mOM16jvJ-1" value="vod-portal-front" style="shape=umlLifeline;perimeter=lifelinePerimeter;whiteSpace=wrap;html=1;container=1;collapsible=0;recursiveResize=0;outlineConnect=0;" vertex="1" parent="1">
          <mxGeometry x="84" y="80" width="120" height="1330" as="geometry" />
        </mxCell>
        <mxCell id="pqXez1qAbr24mOM16jvJ-51" value="" style="html=1;points=[];perimeter=orthogonalPerimeter;" vertex="1" parent="pqXez1qAbr24mOM16jvJ-1">
          <mxGeometry x="54" y="970" width="10" height="40" as="geometry" />
        </mxCell>
        <mxCell id="pqXez1qAbr24mOM16jvJ-52" value="11.选择相应的元数据，并添加到批量导入列表" style="edgeStyle=orthogonalEdgeStyle;html=1;align=left;spacingLeft=2;endArrow=block;rounded=0;entryX=1;entryY=0;" edge="1" target="pqXez1qAbr24mOM16jvJ-51" parent="pqXez1qAbr24mOM16jvJ-1">
          <mxGeometry relative="1" as="geometry">
            <mxPoint x="59" y="950" as="sourcePoint" />
            <Array as="points">
              <mxPoint x="89" y="950" />
            </Array>
          </mxGeometry>
        </mxCell>
        <mxCell id="pqXez1qAbr24mOM16jvJ-6" value="vod-portal" style="shape=umlLifeline;perimeter=lifelinePerimeter;whiteSpace=wrap;html=1;container=1;collapsible=0;recursiveResize=0;outlineConnect=0;" vertex="1" parent="1">
          <mxGeometry x="404" y="80" width="120" height="1320" as="geometry" />
        </mxCell>
        <mxCell id="pqXez1qAbr24mOM16jvJ-29" value="" style="html=1;points=[];perimeter=orthogonalPerimeter;" vertex="1" parent="pqXez1qAbr24mOM16jvJ-6">
          <mxGeometry x="55" y="330" width="10" height="80" as="geometry" />
        </mxCell>
        <mxCell id="pqXez1qAbr24mOM16jvJ-33" value="" style="html=1;points=[];perimeter=orthogonalPerimeter;" vertex="1" parent="pqXez1qAbr24mOM16jvJ-6">
          <mxGeometry x="55" y="530" width="10" height="80" as="geometry" />
        </mxCell>
        <mxCell id="pqXez1qAbr24mOM16jvJ-39" value="" style="html=1;points=[];perimeter=orthogonalPerimeter;" vertex="1" parent="pqXez1qAbr24mOM16jvJ-6">
          <mxGeometry x="55" y="701" width="10" height="80" as="geometry" />
        </mxCell>
        <mxCell id="pqXez1qAbr24mOM16jvJ-48" value="" style="html=1;points=[];perimeter=orthogonalPerimeter;" vertex="1" parent="pqXez1qAbr24mOM16jvJ-6">
          <mxGeometry x="55" y="831" width="10" height="80" as="geometry" />
        </mxCell>
        <mxCell id="pqXez1qAbr24mOM16jvJ-54" value="" style="html=1;points=[];perimeter=orthogonalPerimeter;" vertex="1" parent="pqXez1qAbr24mOM16jvJ-6">
          <mxGeometry x="55" y="1090" width="10" height="80" as="geometry" />
        </mxCell>
        <mxCell id="pqXez1qAbr24mOM16jvJ-57" value="" style="html=1;points=[];perimeter=orthogonalPerimeter;" vertex="1" parent="pqXez1qAbr24mOM16jvJ-6">
          <mxGeometry x="54" y="1242" width="10" height="40" as="geometry" />
        </mxCell>
        <mxCell id="pqXez1qAbr24mOM16jvJ-58" value="14.进入批量导入流程" style="edgeStyle=orthogonalEdgeStyle;html=1;align=left;spacingLeft=2;endArrow=block;rounded=0;entryX=1;entryY=0;" edge="1" target="pqXez1qAbr24mOM16jvJ-57" parent="pqXez1qAbr24mOM16jvJ-6">
          <mxGeometry relative="1" as="geometry">
            <mxPoint x="59" y="1222" as="sourcePoint" />
            <Array as="points">
              <mxPoint x="89" y="1222" />
            </Array>
          </mxGeometry>
        </mxCell>
        <mxCell id="pqXez1qAbr24mOM16jvJ-9" value="live-portal" style="shape=umlLifeline;perimeter=lifelinePerimeter;whiteSpace=wrap;html=1;container=1;collapsible=0;recursiveResize=0;outlineConnect=0;" vertex="1" parent="1">
          <mxGeometry x="764" y="80" width="120" height="1330" as="geometry" />
        </mxCell>
        <mxCell id="pqXez1qAbr24mOM16jvJ-36" value="" style="html=1;points=[];perimeter=orthogonalPerimeter;" vertex="1" parent="pqXez1qAbr24mOM16jvJ-9">
          <mxGeometry x="56" y="542" width="10" height="50" as="geometry" />
        </mxCell>
        <mxCell id="pqXez1qAbr24mOM16jvJ-42" value="" style="html=1;points=[];perimeter=orthogonalPerimeter;" vertex="1" parent="pqXez1qAbr24mOM16jvJ-9">
          <mxGeometry x="56" y="717" width="10" height="50" as="geometry" />
        </mxCell>
        <mxCell id="pqXez1qAbr24mOM16jvJ-12" value="前置条件" style="shape=umlFrame;whiteSpace=wrap;html=1;" vertex="1" parent="1">
          <mxGeometry x="80" y="140" width="850" height="80" as="geometry" />
        </mxCell>
        <mxCell id="pqXez1qAbr24mOM16jvJ-13" value="1.VNO支持live-epg播放源方式" style="text;strokeColor=none;fillColor=none;align=left;verticalAlign=middle;spacingLeft=4;spacingRight=4;overflow=hidden;points=[[0,0.5],[1,0.5]];portConstraint=eastwest;rotatable=0;" vertex="1" parent="1">
          <mxGeometry x="150" y="165" width="690" height="30" as="geometry" />
        </mxCell>
        <mxCell id="pqXez1qAbr24mOM16jvJ-23" value="" style="html=1;points=[];perimeter=orthogonalPerimeter;" vertex="1" parent="1">
          <mxGeometry x="459" y="290" width="10" height="80" as="geometry" />
        </mxCell>
        <mxCell id="pqXez1qAbr24mOM16jvJ-24" value="1.输入时间范围 epgname等查询epg列表信息" style="html=1;verticalAlign=bottom;endArrow=block;entryX=0;entryY=0;rounded=0;" edge="1" target="pqXez1qAbr24mOM16jvJ-23" parent="1" source="pqXez1qAbr24mOM16jvJ-1">
          <mxGeometry relative="1" as="geometry">
            <mxPoint x="444.1612903225807" y="240" as="sourcePoint" />
          </mxGeometry>
        </mxCell>
        <mxCell id="pqXez1qAbr24mOM16jvJ-25" value="4.返回epg列表信息" style="html=1;verticalAlign=bottom;endArrow=open;dashed=1;endSize=8;exitX=0;exitY=0.95;rounded=0;" edge="1" source="pqXez1qAbr24mOM16jvJ-23" parent="1" target="pqXez1qAbr24mOM16jvJ-1">
          <mxGeometry relative="1" as="geometry">
            <mxPoint x="140.3499999999999" y="498.29999999999995" as="targetPoint" />
          </mxGeometry>
        </mxCell>
        <mxCell id="pqXez1qAbr24mOM16jvJ-26" value="" style="html=1;points=[];perimeter=orthogonalPerimeter;" vertex="1" parent="1">
          <mxGeometry x="819" y="302" width="10" height="50" as="geometry" />
        </mxCell>
        <mxCell id="pqXez1qAbr24mOM16jvJ-27" value="2.根据筛选条件查询epg列表信息" style="html=1;verticalAlign=bottom;endArrow=block;entryX=0;entryY=0;rounded=0;exitX=0.9;exitY=0.175;exitDx=0;exitDy=0;exitPerimeter=0;" edge="1" target="pqXez1qAbr24mOM16jvJ-26" parent="1" source="pqXez1qAbr24mOM16jvJ-23">
          <mxGeometry relative="1" as="geometry">
            <mxPoint x="749" y="290" as="sourcePoint" />
          </mxGeometry>
        </mxCell>
        <mxCell id="pqXez1qAbr24mOM16jvJ-28" value="3.返回epg列表信息" style="html=1;verticalAlign=bottom;endArrow=open;dashed=1;endSize=8;exitX=0;exitY=0.95;rounded=0;" edge="1" source="pqXez1qAbr24mOM16jvJ-26" parent="1" target="pqXez1qAbr24mOM16jvJ-23">
          <mxGeometry relative="1" as="geometry">
            <mxPoint x="770" y="340" as="targetPoint" />
          </mxGeometry>
        </mxCell>
        <mxCell id="pqXez1qAbr24mOM16jvJ-30" value="5.选择epg添加为常用搜索范围" style="html=1;verticalAlign=bottom;endArrow=block;entryX=0;entryY=0;rounded=0;" edge="1" target="pqXez1qAbr24mOM16jvJ-29" parent="1" source="pqXez1qAbr24mOM16jvJ-1">
          <mxGeometry relative="1" as="geometry">
            <mxPoint x="389" y="410" as="sourcePoint" />
          </mxGeometry>
        </mxCell>
        <mxCell id="pqXez1qAbr24mOM16jvJ-31" value="6.保存结果并返回" style="html=1;verticalAlign=bottom;endArrow=open;dashed=1;endSize=8;exitX=0;exitY=0.95;rounded=0;" edge="1" source="pqXez1qAbr24mOM16jvJ-29" parent="1" target="pqXez1qAbr24mOM16jvJ-1">
          <mxGeometry relative="1" as="geometry">
            <mxPoint x="389" y="486" as="targetPoint" />
          </mxGeometry>
        </mxCell>
        <mxCell id="pqXez1qAbr24mOM16jvJ-32" value="选择epg搜索范围" style="shape=umlFrame;whiteSpace=wrap;html=1;width=100;height=30;" vertex="1" parent="1">
          <mxGeometry x="80" y="250" width="850" height="260" as="geometry" />
        </mxCell>
        <mxCell id="pqXez1qAbr24mOM16jvJ-34" value="1.根据搜索范围的epgId列表，&lt;br&gt;输入epgName查询epg列表信息" style="html=1;verticalAlign=bottom;endArrow=block;entryX=0;entryY=0;rounded=0;" edge="1" target="pqXez1qAbr24mOM16jvJ-33" parent="1">
          <mxGeometry relative="1" as="geometry">
            <mxPoint x="143.5" y="610" as="sourcePoint" />
          </mxGeometry>
        </mxCell>
        <mxCell id="pqXez1qAbr24mOM16jvJ-37" value="2.根据筛选条件查询epg列表信息" style="html=1;verticalAlign=bottom;endArrow=block;entryX=0;entryY=0;rounded=0;" edge="1" target="pqXez1qAbr24mOM16jvJ-36" parent="1" source="pqXez1qAbr24mOM16jvJ-6">
          <mxGeometry relative="1" as="geometry">
            <mxPoint x="750" y="622" as="sourcePoint" />
          </mxGeometry>
        </mxCell>
        <mxCell id="pqXez1qAbr24mOM16jvJ-38" value="3.返回epg列表信息" style="html=1;verticalAlign=bottom;endArrow=open;dashed=1;endSize=8;rounded=0;" edge="1" source="pqXez1qAbr24mOM16jvJ-36" parent="1">
          <mxGeometry relative="1" as="geometry">
            <mxPoint x="470" y="670" as="targetPoint" />
          </mxGeometry>
        </mxCell>
        <mxCell id="pqXez1qAbr24mOM16jvJ-35" value="4.返回epg列表信息" style="html=1;verticalAlign=bottom;endArrow=open;dashed=1;endSize=8;exitX=0;exitY=0.95;rounded=0;" edge="1" source="pqXez1qAbr24mOM16jvJ-33" parent="1" target="pqXez1qAbr24mOM16jvJ-1">
          <mxGeometry relative="1" as="geometry">
            <mxPoint x="389" y="686" as="targetPoint" />
          </mxGeometry>
        </mxCell>
        <mxCell id="pqXez1qAbr24mOM16jvJ-40" value="5.点击某条epg查询相应epg program" style="html=1;verticalAlign=bottom;endArrow=block;entryX=0;entryY=0;rounded=0;" edge="1" target="pqXez1qAbr24mOM16jvJ-39" parent="1">
          <mxGeometry relative="1" as="geometry">
            <mxPoint x="143.5" y="781" as="sourcePoint" />
          </mxGeometry>
        </mxCell>
        <mxCell id="pqXez1qAbr24mOM16jvJ-41" value="8.返回epg program" style="html=1;verticalAlign=bottom;endArrow=open;dashed=1;endSize=8;exitX=0;exitY=0.95;rounded=0;" edge="1" source="pqXez1qAbr24mOM16jvJ-39" parent="1">
          <mxGeometry relative="1" as="geometry">
            <mxPoint x="143.5" y="857" as="targetPoint" />
          </mxGeometry>
        </mxCell>
        <mxCell id="pqXez1qAbr24mOM16jvJ-44" value="7.返回epg program列表" style="html=1;verticalAlign=bottom;endArrow=open;dashed=1;endSize=8;exitX=0;exitY=0.95;rounded=0;" edge="1" source="pqXez1qAbr24mOM16jvJ-42" parent="1">
          <mxGeometry relative="1" as="geometry">
            <mxPoint x="463.5" y="844.5" as="targetPoint" />
          </mxGeometry>
        </mxCell>
        <mxCell id="pqXez1qAbr24mOM16jvJ-43" value="6.根据epgId查询epg program" style="html=1;verticalAlign=bottom;endArrow=block;entryX=0;entryY=0;rounded=0;" edge="1" target="pqXez1qAbr24mOM16jvJ-42" parent="1">
          <mxGeometry relative="1" as="geometry">
            <mxPoint x="463.5" y="797" as="sourcePoint" />
          </mxGeometry>
        </mxCell>
        <mxCell id="pqXez1qAbr24mOM16jvJ-49" value="9.点击某个epg program，带入相应的epg program Name&lt;br&gt;查询movie&amp;amp;series信息" style="html=1;verticalAlign=bottom;endArrow=block;entryX=0;entryY=0;rounded=0;" edge="1" target="pqXez1qAbr24mOM16jvJ-48" parent="1">
          <mxGeometry relative="1" as="geometry">
            <mxPoint x="143.5" y="911" as="sourcePoint" />
          </mxGeometry>
        </mxCell>
        <mxCell id="pqXez1qAbr24mOM16jvJ-50" value="10.根据name查询pp&amp;amp;tmdb的元数据信息并返回结果" style="html=1;verticalAlign=bottom;endArrow=open;dashed=1;endSize=8;exitX=0;exitY=0.95;rounded=0;" edge="1" source="pqXez1qAbr24mOM16jvJ-48" parent="1" target="pqXez1qAbr24mOM16jvJ-1">
          <mxGeometry relative="1" as="geometry">
            <mxPoint x="389" y="987" as="targetPoint" />
          </mxGeometry>
        </mxCell>
        <mxCell id="pqXez1qAbr24mOM16jvJ-53" value="EPG与元数据建立关联" style="shape=umlFrame;whiteSpace=wrap;html=1;width=130;height=30;" vertex="1" parent="1">
          <mxGeometry x="80" y="540" width="850" height="580" as="geometry" />
        </mxCell>
        <mxCell id="pqXez1qAbr24mOM16jvJ-55" value="12.提交批量导入" style="html=1;verticalAlign=bottom;endArrow=block;entryX=0;entryY=0;rounded=0;" edge="1" target="pqXez1qAbr24mOM16jvJ-54" parent="1" source="pqXez1qAbr24mOM16jvJ-1">
          <mxGeometry relative="1" as="geometry">
            <mxPoint x="389" y="1170" as="sourcePoint" />
          </mxGeometry>
        </mxCell>
        <mxCell id="pqXez1qAbr24mOM16jvJ-56" value="13.返回提交成功信息" style="html=1;verticalAlign=bottom;endArrow=open;dashed=1;endSize=8;exitX=0;exitY=0.95;rounded=0;" edge="1" source="pqXez1qAbr24mOM16jvJ-54" parent="1" target="pqXez1qAbr24mOM16jvJ-1">
          <mxGeometry relative="1" as="geometry">
            <mxPoint x="389" y="1246" as="targetPoint" />
          </mxGeometry>
        </mxCell>
      </root>
    </mxGraphModel>
  </diagram>
</mxfile>
